<svg width="176" height="52" xmlns="http://www.w3.org/2000/svg">
 <defs>
  <filter height="200%" width="200%" y="-50%" x="-50%" id="svg_1_blur">
   <feGaussianBlur stdDeviation="0" in="SourceGraphic"/>
  </filter>
 </defs>
 <g>
  <title>background</title>
  <rect fill="#2a2c2f" id="canvas_background" height="54" width="178" y="-1" x="-1"/>
 </g>
 <g>
  <title>Layer 1</title>
  <path stroke-width="0" filter="url(#svg_1_blur)" id="svg_1" fill="white" d="m7.76534,23.3826l2.64536,-1.3088l4.1813,-6.2819l1.28,-0.5234l1.3654,6.3691l-1.792,0.2617l-1.3654,-2.6174l-1.024,4.1007l4.5227,0l4.6933,1.2214l1.8774,-1.2214l3.1573,3.3154l1.3653,-6.1074l2.2187,2.2685l1.3653,-1.9195l2.2187,-0.6107l3.2427,-3.0537l0.512,-1.4833l2.6453,0.4363l1.1094,1.4832l-1.9627,4.1879l4.864,-2.5302l0,-1.2215l1.8773,-0.4362l2.048,2.094l2.048,-2.5302l0,-1.745l3.328,-2.3557l1.3654,-2.0067l2.1333,0l3.7547,-7.76512l3.2427,-3.40268l1.1946,1.91946l-1.8773,2.44296l0.6827,1.57047l1.792,0.34899l1.4506,6.45642l0,5.4093l2.56,3.5772l1.28,4.9732l-4.4373,-2.8792l-1.9627,-8.2886l-1.1947,0.2617l-0.1706,5.5839l-3.2427,5.3222l-0.9387,8.1141l2.2187,0.5235l0.9387,-1.1343l2.1333,2.443l1.6213,7.3289l-0.1706,4.7114l-2.048,0l-0.768,-6.6309l-1.4507,2.0067l-3.1573,-0.698l-2.56,-2.1812l-2.9014,1.047l0.1707,4.7114l-2.304,0.6107l-3.4133,2.6175l-4.096,-0.5235l-1.6214,-0.9597l-2.56,0.4362l0.8534,1.047l-2.048,1.2215l-1.6214,-0.7853l-3.072,1.396l-4.6933,-2.3557l-1.792,-4.1879l-1.536,0.1745l-1.792,-1.4832l-0.0854,-1.1343l-5.7173,-0.6107l-0.9387,3.1409l-3.584,-1.6577l-1.792,-3.0537l-3.83999,0l-0.42667,4.8859l-2.21867,0.698l-1.10933,4.4497l-0.85334,-0.7853l-3.584,-9.3355l4.26667,-2.094l-0.68267,-4.1007l-0.68266,-4.1879l1.87733,-2.7047l-0.59733,-1.6577l2.56,-2.7919l1.024,0.1745zm56.74676,10.2953l3.9253,5.9328l1.28,-0.5235l-1.6213,-2.4429l-3.584,-3.8389l0,0.8725zm-40.1067,-12.0403l0,-1.745l2.9866,-2.1812l2.56,-1.3087l-2.9866,0l-2.6454,1.5705l-1.6213,1.4832l0,2.1812l1.7067,0z"/>
  <path id="svg_2" fill="white" d="m89.8314,41.0004l4.7232,0l0,-5.1818l2.6164,0c3.967,0 6.626,-2.3437 6.626,-6.1022c0,-3.716 -2.591,-6.1705 -6.4561,-6.1705l-7.5095,0l0,17.4545zm4.7232,-8.8636l0,-4.8068l1.665,0c1.6565,0 2.6504,0.8864 2.6504,2.3864c0,1.4914 -0.9939,2.4204 -2.6504,2.4204l-1.665,0z"/>
  <path id="svg_3" fill="white" d="m111.604,41.2391c4.247,0 6.762,-2.7273 6.762,-6.75c0,-4.0227 -2.515,-6.75 -6.762,-6.75c-4.248,0 -6.762,2.7273 -6.762,6.75c0,4.0227 2.514,6.75 6.762,6.75zm0.034,-3.4773c-1.257,0 -2.005,-1.2528 -2.005,-3.3068c0,-2.054 0.748,-3.3068 2.005,-3.3068c1.189,0 1.937,1.2528 1.937,3.3068c0,2.054 -0.748,3.3068 -1.937,3.3068z"/>
  <path id="svg_4" fill="white" d="m126.555,41.2391c3.865,0 6.235,-2.2245 6.286,-5.6932l-4.349,0c-0.102,1.3722 -0.841,2.1136 -1.869,2.1136c-1.232,0 -2.039,-1.0568 -2.039,-3.2045c0,-2.1477 0.807,-3.2046 2.039,-3.2046c1.036,0 1.742,0.7415 1.869,2.1137l4.349,0c-0.025,-3.4091 -2.446,-5.625 -6.286,-5.625c-4.247,0 -6.762,2.7273 -6.762,6.75c0,4.0227 2.515,6.75 6.762,6.75z"/>
  <path id="svg_5" fill="white" d="m141.062,41.2391c3.866,0 6.236,-2.2245 6.287,-5.6932l-4.35,0c-0.102,1.3722 -0.841,2.1136 -1.869,2.1136c-1.231,0 -2.038,-1.0568 -2.038,-3.2045c0,-2.1477 0.807,-3.2046 2.038,-3.2046c1.037,0 1.742,0.7415 1.869,2.1137l4.35,0c-0.026,-3.4091 -2.447,-5.625 -6.287,-5.625c-4.247,0 -6.762,2.7273 -6.762,6.75c0,4.0227 2.515,6.75 6.762,6.75z"/>
  <path id="svg_6" fill="white" d="m153.701,35.0004l0,-7.0909l-4.418,0l0,13.0909l4.418,0l3.636,-7.125l0,7.125l4.417,0l0,-13.0909l-4.417,0l-3.636,7.0909z"/>
  <path id="svg_7" fill="white" d="m171.651,41.0004l4.349,0l0,-13.0909l-6.116,0c-3.764,0 -6.142,1.9091 -6.117,4.5682c-0.017,1.4915 0.875,2.7273 2.438,3.4602l-2.574,5.0625l4.316,0l2.2,-4.3295l1.504,0l0,4.3295zm0,-7.159l-1.665,0c-1.249,0 -1.827,-0.6137 -1.801,-1.1932c-0.026,-0.5455 0.518,-1.2273 1.699,-1.2273l1.767,0l0,2.4205z"/>
 </g>
</svg>